:SAMPLES-PER-SECOND 30
:FULLY-SPECIFIED
:DEGREES
159
root  64.1351 38.4759 3.7286 172.521 78.838 173.516
RightUpLeg  -15.9949 -8.57747 -3.0654
RightLeg  17.9677 11.2992 3.97477
RightFoot  0.447519 -0.0539212 0.548446
RightToes  3.49245e-010 0 -3.6325e-017
Spine  0.802093 0.842908 12.0593
Spine1  9.88581 2.54208 -4.5696
HEad  -18.5263 -4.32707 -4.50456
LeftShoulder1  -0.755923 5.32079 -35.4022
LeftArm  6.73939 16.3134 -35.2709
LeftForeArm  36.31 -11.4897 -9.59818
LeftHand  -0.255205 10.3446 -4.48681
RightShoulder  -0.771591 -5.75938 27.5844
RightArm  24.6076 3.04074 44.5131
RightForeArm  8.52361 22.6754 4.50214
RightHand  0.0866079 3.10978 0.949387
LeftUpLeg  -8.54804 3.57109 1.43664
LeftLeg  50.0986 4.35512 6.01586
LeftFoot  -3.13272 0.103312 -1.11304
LeftToes  -5.6298e-010 8.41567e-011 -1.83319e-011
160
root  64.8025 38.7552 3.85482 169.444 76.8989 170.166
RightUpLeg  -13.8879 -10.4361 -4.28288
RightLeg  16.2144 11.2519 4.19982
RightFoot  0.217436 -0.00915129 0.106049
RightToes  3.49245e-010 0 -3.6325e-017
Spine  1.31405 1.158 11.3358
Spine1  9.18496 2.86291 -4.86046
HEad  -17.2559 -4.92668 -4.54208
LeftShoulder1  -0.767823 5.34819 -35.4278
LeftArm  8.10152 18.6254 -34.1739
LeftForeArm  32.501 -12.9298 -8.93335
LeftHand  -0.227509 9.80579 -4.13173
RightShoulder  -0.755562 -5.73375 27.2438
RightArm  24.0541 3.52269 44.1292
RightForeArm  9.06373 23.905 4.6267
RightHand  0.0516592 3.50717 0.447373
LeftUpLeg  -9.77273 5.29835 0.143879
LeftLeg  45.1962 4.80169 5.55075
LeftFoot  -5.23905 0.0526261 -0.453246
LeftToes  -5.6298e-010 8.41567e-011 -1.83319e-011
161
root  65.4354 39.0163 3.94732 169.077 75.057 169.918
RightUpLeg  -11.1434 -11.0134 -5.06878
RightLeg  13.7773 10.0609 3.99099
RightFoot  0.128707 -0.0964251 0.969237
RightToes  3.49245e-010 0 -3.6325e-017
Spine  1.50285 1.47181 11.0334
Spine1  9.28958 3.1073 -4.85125
HEad  -17.0552 -4.30421 -5.51489
LeftShoulder1  -0.734472 5.27128 -35.3565
LeftArm  7.751 21.2715 -34.2528
LeftForeArm  29.2853 -15.6223 -7.15606
LeftHand  -0.091737 8.44399 -1.74485
RightShoulder  -0.743494 -5.72293 26.8623
RightArm  24.4303 4.47062 43.8861
RightForeArm  8.13437 23.8238 4.67306
RightHand  -0.0242532 4.10794 -0.575275
LeftUpLeg  -9.45594 7.52815 -0.587311
LeftLeg  37.8072 6.18382 5.47022
LeftFoot  -7.15776 0.0870943 -1.17093
LeftToes  -5.6298e-010 8.41567e-011 -1.83319e-011
162
root  66.0217 39.2363 4.07073 168.963 72.5549 170.033
RightUpLeg  -8.41325 -11.3909 -5.79872
RightLeg  11.5845 7.95293 3.58711
RightFoot  -0.0950695 -0.0988105 0.997453
RightToes  3.49245e-010 0 -3.6325e-017
Spine  1.88048 1.70752 9.81952
Spine1  8.80828 3.06095 -4.14744
HEad  -15.584 -2.87405 -7.01324
LeftShoulder1  -0.699138 5.18977 -35.2747
LeftArm  10.2615 22.4847 -34.0734
LeftForeArm  24.9112 -17.6418 -6.20562
LeftHand  -0.135172 10.0932 -1.90518
RightShoulder  -0.789202 -5.86854 26.7435
RightArm  25.1049 5.13382 43.2371
RightForeArm  7.60691 23.3951 4.61844
RightHand  0.0188381 4.0306 -0.0357903
LeftUpLeg  -8.42789 9.30556 -1.37388
LeftLeg  29.3217 7.32671 4.81614
LeftFoot  -8.71766 0.0811476 -1.29187
LeftToes  -5.6298e-010 8.41567e-011 -1.83319e-011
163
root  66.6047 39.4208 4.12768 168.817 69.6598 170.094
RightUpLeg  -5.76345 -11.8769 -6.61354
RightLeg  9.67558 5.51186 3.33141
RightFoot  -0.26481 -0.0466995 0.464952
RightToes  3.49245e-010 0 -3.6325e-017
Spine  1.56973 1.98959 9.21063
Spine1  8.80295 3.27489 -4.29169
HEad  -13.2253 -1.89134 -7.87342
LeftShoulder1  -0.712119 5.22186 -35.2464
LeftArm  10.5121 22.8338 -34.1323
LeftForeArm  23.067 -19.0181 -5.39734
LeftHand  -0.122474 10.4629 -1.52809
RightShoulder  -0.86895 -6.0888 27.0256
RightArm  26.9767 5.42336 42.1893
RightForeArm  6.43043 22.6455 4.63912
RightHand  -0.0326836 4.17555 -0.673508
LeftUpLeg  -6.85901 9.60204 -2.26029
LeftLeg  20.6069 7.10381 3.2441
LeftFoot  -9.89848 0.081943 -1.72246
LeftToes  -5.6298e-010 8.41567e-011 -1.83319e-011
164
root  67.1872 39.4462 4.17036 171.971 65.6185 173.124
RightUpLeg  -4.18258 -12.1412 -6.54238
RightLeg  9.39342 2.23445 3.47285
RightFoot  -1.32304 -0.0695198 0.684862
RightToes  3.49245e-010 0 -3.6325e-017
Spine  -0.0608209 1.99833 8.90422
Spine1  9.24374 2.90268 -3.27514
HEad  -11.56 1.04998 -9.33036
LeftShoulder1  -0.781435 5.37282 -35.6057
LeftArm  10.1104 22.6027 -33.889
LeftForeArm  22.7131 -20.2551 -4.68033
LeftHand  -0.114103 8.33226 -2.46903
RightShoulder  -0.866977 -6.0836 27.0139
RightArm  29.0369 5.18071 41.4665
RightForeArm  4.26161 21.0814 4.91524
RightHand  -0.0331593 4.21459 -0.677736
LeftUpLeg  -6.14871 8.6908 -1.96036
LeftLeg  14.3854 7.9712 2.32958
LeftFoot  -10.6757 0.0712741 -1.28816
LeftToes  -5.6298e-010 8.41567e-011 -1.83319e-011
165
root  67.702 39.4734 4.26836 174.032 61.1948 175.659
RightUpLeg  -1.97824 -11.761 -5.91976
RightLeg  8.56109 -2.45072 3.04752
RightFoot  -2.23587 -0.102588 1.12119
RightToes  3.49245e-010 0 -3.6325e-017
Spine  -0.522267 1.89638 7.81305
Spine1  8.87624 2.38676 -1.90409
HEad  -9.17882 3.27144 -9.53882
LeftShoulder1  -0.765021 5.33144 -35.6479
LeftArm  9.81498 22.113 -34.4304
LeftForeArm  21.3942 -21.5924 -4.20737
LeftHand  -0.127436 9.07469 -2.34314
RightShoulder  -0.869389 -6.08175 27.1328
RightArm  27.5424 4.15165 41.0944
RightForeArm  5.94053 19.0295 5.4214
RightHand  -0.0325144 4.19659 -0.668859
LeftUpLeg  -6.09624 8.89945 -1.00668
LeftLeg  12.1221 9.9413 1.7627
LeftFoot  -10.0528 0.0649002 -0.460739
LeftToes  -5.6298e-010 8.41567e-011 -1.83319e-011
166
root  68.1842 39.4421 4.30732 174.876 56.5598 176.387
RightUpLeg  -0.962875 -12.577 -6.12243
RightLeg  9.1723 -5.9705 3.09654
RightFoot  -3.96969 -0.157926 2.00904
RightToes  3.49245e-010 0 -3.6325e-017
Spine  -1.46634 1.96278 6.11329
Spine1  8.5788 2.12167 -0.621634
HEad  -7.94239 4.75909 -9.20419
LeftShoulder1  -0.805558 5.41904 -35.8453
LeftArm  9.73638 21.3864 -34.571
LeftForeArm  21.2005 -23.5068 -3.94892
LeftHand  -0.0885827 8.3795 -1.44048
RightShoulder  -0.883881 -6.11759 27.2303
RightArm  25.1819 2.91896 40.969
RightForeArm  8.92729 16.2087 6.35982
RightHand  -0.0217024 3.74426 -0.536351
LeftUpLeg  -6.9238 9.97989 -1.08788
LeftLeg  12.3377 12.5368 2.28
LeftFoot  -8.99151 0.0450077 0.459056
LeftToes  -5.6298e-010 8.41567e-011 -1.83319e-011
167
root  68.6285 39.3955 4.28146 175.101 51.8785 177.141
RightUpLeg  0.752538 -13.9242 -6.45535
RightLeg  9.88057 -8.80555 3.23413
RightFoot  -5.25812 -0.155702 2.274
RightToes  3.49245e-010 0 -3.6325e-017
Spine  -1.67566 2.04514 5.00681
Spine1  8.14883 2.14869 -0.209616
HEad  -6.13968 4.30318 -7.59884
LeftShoulder1  -0.787255 5.37301 -35.9005
LeftArm  9.93527 20.2358 -34.5041
LeftForeArm  21.0068 -25.4574 -4.33285
LeftHand  -0.0336349 6.18956 -0.211321
RightShoulder  -0.889121 -6.13032 27.273
RightArm  21.939 1.1377 41.1409
RightForeArm  12.1049 13.2297 7.22379
RightHand  -0.0209835 3.5022 -0.519955
LeftUpLeg  -7.05152 11.566 -1.03081
LeftLeg  13.7152 14.5505 3.39874
LeftFoot  -8.29053 0.00956453 1.51345
LeftToes  -5.6298e-010 8.41567e-011 -1.83319e-011
168
root  69.0724 39.3394 4.21295 175.326 47.5854 178.577
RightUpLeg  3.11085 -14.7812 -6.0747
RightLeg  10.0496 -11.9471 3.19203
RightFoot  -6.47884 -0.174401 3.05252
RightToes  3.49245e-010 0 -3.6325e-017
Spine  -1.84111 2.29229 4.89338
Spine1  8.35158 2.52735 -0.658034
HEad  -5.57134 4.58589 -5.54045
LeftShoulder1  -0.798002 5.39039 -36.0873
LeftArm  9.09493 19.0908 -34.5143
LeftForeArm  22.4458 -27.891 -4.80329
LeftHand  -0.0344113 6.07221 -0.157915
RightShoulder  -0.919933 -6.18836 27.6623
RightArm  18.2387 -0.827935 41.5665
RightForeArm  16.2903 10.6593 7.46033
RightHand  0.0168696 3.22634 -0.0117767
LeftUpLeg  -6.2237 13.556 0.138887
LeftLeg  14.5209 14.4744 3.69741
LeftFoot  -6.85004 -0.0637523 2.66927
LeftToes  -5.6298e-010 8.41567e-011 -1.83319e-011
169
root  69.5796 39.2697 4.12096 176.623 43.6005 -179.892
RightUpLeg  3.96474 -15.9499 -4.78844
RightLeg  10.6304 -14.8492 2.56834
RightFoot  -7.34284 -0.172857 3.50121
RightToes  3.49245e-010 0 -3.6325e-017
Spine  -3.37827 2.55594 4.43045
Spine1  8.52568 2.9043 -1.30878
HEad  -4.30902 5.08695 -3.58229
LeftShoulder1  -0.782427 5.40893 -34.8743
LeftArm  7.58079 19.4537 -35.3012
LeftForeArm  24.1328 -30.7476 -5.36779
LeftHand  -0.0297488 5.94469 0.319864
RightShoulder  -1.0629 -6.50044 28.9512
RightArm  17.6606 -2.31242 41.64
RightForeArm  18.5297 9.09054 7.75582
RightHand  0.0278623 2.85913 0.176158
LeftUpLeg  -6.24558 13.3599 1.53242
LeftLeg  14.1853 12.7022 3.04613
LeftFoot  -3.98835 -0.18016 3.18199
LeftToes  -5.6298e-010 8.41567e-011 -1.83319e-011
170
root  69.9851 39.202 3.88674 176.425 39.9362 -179.766
RightUpLeg  4.90062 -23.8366 -5.76199
RightLeg  12.8519 -10.1822 1.34157
RightFoot  -8.73224 -0.160211 4.52895
RightToes  3.49245e-010 0 -3.6325e-017
Spine  -4.86347 2.76853 3.62224
Spine1  9.10612 3.33396 -2.63084
HEad  -2.19669 6.04059 -0.719293
LeftShoulder1  -0.753744 5.3345 -34.9417
LeftArm  7.9364 19.0335 -34.8756
LeftForeArm  24.3144 -32.4565 -5.77343
LeftHand  -0.025453 6.11658 0.938604
RightShoulder  -1.06052 -6.50609 28.7908
RightArm  16.9571 -4.44202 42.8977
RightForeArm  20.3511 8.41845 7.70483
RightHand  0.0372915 2.65974 0.334415
LeftUpLeg  -5.89656 10.2784 1.50096
LeftLeg  14.3761 11.6445 2.90386
LeftFoot  -3.53842 -0.242145 3.87393
LeftToes  -5.6298e-010 8.41567e-011 -1.83319e-011
171
root  70.2014 38.9799 3.61308 174.786 35.7748 179.297
RightUpLeg  4.54241 -34.7279 -8.63348
RightLeg  19.7489 -2.1279 -1.4891
RightFoot  -10.6444 -0.113301 7.43616
RightToes  3.49245e-010 0 -3.6325e-017
Spine  -3.44802 2.46496 2.40146
Spine1  7.70191 3.33289 -4.11125
HEad  -1.0086 7.29895 0.757578
LeftShoulder1  -0.899711 5.64992 -35.7137
LeftArm  9.11941 18.1368 -33.7587
LeftForeArm  24.0819 -33.078 -5.94151
LeftHand  -0.0291303 5.47467 0.580582
RightShoulder  -1.06522 -6.51991 28.7893
RightArm  16.0663 -6.73575 44.0402
RightForeArm  20.0174 8.59327 7.43787
RightHand  -0.0117769 2.77467 -0.386703
LeftUpLeg  -5.82415 6.71844 -0.0394596
LeftLeg  16.6977 11.187 3.91954
LeftFoot  -4.54115 -0.221872 4.19335
LeftToes  -5.6298e-010 8.41567e-011 -1.83319e-011
